<svg width="24" height="24" viewBox="0 0 24 24" fill="none" xmlns="http://www.w3.org/2000/svg">
<path fill-rule="evenodd" clip-rule="evenodd" d="M17.7013 10.4068C17.7013 10.4068 17.8107 10.9479 17.8481 10.9531C19.8631 11.2329 21.375 12.3773 21.375 14.4167C21.375 16.6517 19.5142 18.4635 17.2188 18.4635H6.53125C4.23582 18.4635 2.375 16.6517 2.375 14.4167C2.375 12.3773 3.92423 10.6903 5.93926 10.4105C5.9766 10.4054 6.01318 10.4042 6.04868 10.4068C6.58402 7.74956 8.98906 5.7448 11.875 5.7448C14.7609 5.7448 17.166 7.74956 17.7013 10.4068Z" fill="#F3F3F3"/>
<path d="M6.84559 18.4635C4.37655 18.4635 2.375 16.5654 2.375 14.224C2.375 12.1788 3.90202 10.4719 5.9338 10.0726C6.63228 7.58083 9.02754 5.7448 11.875 5.7448C15.094 5.7448 17.7351 8.09125 18.0002 11.0789C19.9065 11.3271 21.375 12.8779 21.375 14.7539C21.375 16.8027 19.6236 18.4635 17.4632 18.4635H6.84559Z" stroke="#231815" stroke-width="2" stroke-linecap="round" stroke-linejoin="round"/>
</svg>
