<svg width="32" height="31" viewBox="0 0 32 31" fill="none" xmlns="http://www.w3.org/2000/svg">
<path fill-rule="evenodd" clip-rule="evenodd" d="M23.7684 13.2369C23.7684 13.2369 23.9143 13.9583 23.9641 13.9652C26.6508 14.3383 28.6667 15.8642 28.6667 18.5833C28.6667 21.5634 26.1856 23.9792 23.125 23.9792H8.87501C5.81443 23.9792 3.33334 21.5634 3.33334 18.5833C3.33334 15.8642 5.39898 13.6149 8.08569 13.2418C8.13548 13.2349 8.18425 13.2334 8.23158 13.2369C8.94537 9.69385 12.1521 7.02083 16 7.02083C19.8479 7.02083 23.0546 9.69385 23.7684 13.2369Z" fill="#F3F3F3"/>
<path d="M9.29413 23.9792C6.00208 23.9792 3.33334 21.4483 3.33334 18.3264C3.33334 15.5995 5.36937 13.3236 8.07842 12.7913C9.00972 9.46888 12.2034 7.02083 16 7.02083C20.292 7.02083 23.8135 10.1494 24.1669 14.133C26.7087 14.4639 28.6667 16.5316 28.6667 19.033C28.6667 21.7647 26.3315 23.9792 23.451 23.9792H9.29413Z" stroke="#231815" stroke-width="2" stroke-linecap="round" stroke-linejoin="round"/>
</svg>
