<svg width="31" height="31" viewBox="0 0 31 31" fill="none" xmlns="http://www.w3.org/2000/svg">
<path fill-rule="evenodd" clip-rule="evenodd" d="M23.064 13.2369C23.064 13.2369 23.206 13.9583 23.2545 13.9653C25.8705 14.3383 27.8333 15.8642 27.8333 18.5833C27.8333 21.5634 25.4175 23.9792 22.4375 23.9792H8.5625C5.58247 23.9792 3.16667 21.5634 3.16667 18.5833C3.16667 15.8642 5.17795 13.6149 7.79396 13.2418C7.84243 13.2349 7.88992 13.2334 7.93601 13.2369C8.63102 9.69386 11.7534 7.02084 15.5 7.02084C19.2467 7.02084 22.369 9.69387 23.064 13.2369Z" fill="#F3F3F3"/>
<path d="M22.4375 23.9792H22.7549C25.5596 23.9792 27.8333 21.7647 27.8333 19.033C27.8333 16.5316 25.9269 14.4639 23.452 14.133C23.1079 10.1494 19.6791 7.02084 15.5 7.02084C11.8033 7.02084 8.69367 9.46889 7.78687 12.7913C5.14912 13.3236 3.16667 15.5995 3.16667 18.3264C3.16667 21.3147 5.5475 23.7615 8.5625 23.9654" stroke="#231815" stroke-width="2" stroke-linecap="round" stroke-linejoin="round"/>
</svg>
