<svg width="155" height="150" viewBox="0 0 155 150" fill="none" xmlns="http://www.w3.org/2000/svg">
<path fill-rule="evenodd" clip-rule="evenodd" d="M115.32 63.9902C115.32 63.9902 116.03 67.5 116.273 67.5336C129.353 69.3484 139.167 76.7719 139.167 90C139.167 104.497 127.088 116.25 112.188 116.25H42.8125C27.9123 116.25 15.8333 104.497 15.8333 90C15.8333 76.7719 25.8897 65.8291 38.9698 64.0142C39.2121 63.9806 39.4496 63.9735 39.68 63.9902C43.1551 46.7539 58.7667 33.75 77.5 33.75C96.2333 33.75 111.845 46.7539 115.32 63.9902Z" fill="#F3F3F3"/>
<path d="M44.8529 116.25C28.8259 116.25 15.8333 103.938 15.8333 88.75C15.8333 75.4841 25.7456 64.4122 38.9343 61.8224C43.4683 45.6594 59.0165 33.75 77.5 33.75C98.3953 33.75 115.539 48.9702 117.26 68.3498C129.635 69.9596 139.167 80.0187 139.167 92.1875C139.167 105.477 127.798 116.25 113.775 116.25H44.8529Z" stroke="#231815" stroke-width="3" stroke-linecap="round" stroke-linejoin="round"/>
</svg>
