<svg width="22" height="22" viewBox="0 0 22 22" fill="none" xmlns="http://www.w3.org/2000/svg">
<path d="M14.6166 6.26534L14.9916 6.91486L14.9916 6.91486L14.6166 6.26534ZM17.121 6.93639L17.7705 6.56139L17.7705 6.56139L17.121 6.93639ZM17.5793 7.73024L16.9298 8.10524L16.9298 8.10524L17.5793 7.73024ZM16.9083 10.2346L17.2833 10.8841L17.2833 10.8841L16.9083 10.2346ZM16.9083 11.7653L16.5333 12.4149L16.9083 11.7653ZM17.5793 14.2697L18.2288 14.6447L18.2288 14.6447L17.5793 14.2697ZM17.121 15.0636L16.4715 14.6886L16.4715 14.6886L17.121 15.0636ZM14.6166 15.7346L14.9916 15.0851L14.9916 15.0851L14.6166 15.7346ZM7.38198 15.7346L7.00698 15.0851L7.00698 15.0851L7.38198 15.7346ZM4.8776 15.0636L5.52712 14.6886L5.52712 14.6886L4.8776 15.0636ZM4.41927 14.2697L3.76975 14.6447L3.76975 14.6447L4.41927 14.2697ZM5.09031 11.7653L4.71531 11.1158L4.71531 11.1158L5.09031 11.7653ZM5.09033 10.2346L4.71533 10.8841L4.71533 10.8841L5.09033 10.2346ZM4.41929 7.73024L3.76977 7.35524L3.76977 7.35524L4.41929 7.73024ZM4.87762 6.93639L5.52714 7.31139L5.52714 7.31139L4.87762 6.93639ZM7.382 6.26534L7.007 6.91486L7.007 6.91486L7.382 6.26534ZM10.5409 2.91667C9.11414 2.91667 7.95755 4.07327 7.95755 5.50001H9.45755C9.45755 4.9017 9.94257 4.41667 10.5409 4.41667V2.91667ZM11.4575 2.91667H10.5409V4.41667H11.4575V2.91667ZM14.0409 5.50001C14.0409 4.07327 12.8843 2.91667 11.4575 2.91667V4.41667C12.0559 4.41667 12.5409 4.9017 12.5409 5.50001H14.0409ZM17.7705 6.56139C17.0571 5.3258 15.4772 4.90245 14.2416 5.61582L14.9916 6.91486C15.5097 6.61571 16.1723 6.79324 16.4715 7.31139L17.7705 6.56139ZM18.2288 7.35524L17.7705 6.56139L16.4715 7.31139L16.9298 8.10524L18.2288 7.35524ZM17.2833 10.8841C18.5188 10.1708 18.9422 8.59083 18.2288 7.35524L16.9298 8.10524C17.2289 8.62339 17.0514 9.28595 16.5333 9.58511L17.2833 10.8841ZM18.2288 14.6447C18.9422 13.4091 18.5189 11.8292 17.2833 11.1158L16.5333 12.4149C17.0514 12.714 17.229 13.3766 16.9298 13.8947L18.2288 14.6447ZM17.7705 15.4386L18.2288 14.6447L16.9298 13.8947L16.4715 14.6886L17.7705 15.4386ZM14.2416 16.3841C15.4772 17.0975 17.0571 16.6742 17.7705 15.4386L16.4715 14.6886C16.1723 15.2067 15.5098 15.3843 14.9916 15.0851L14.2416 16.3841ZM11.4575 19.0833C12.8843 19.0833 14.0409 17.9267 14.0409 16.5H12.5409C12.5409 17.0983 12.0559 17.5833 11.4575 17.5833V19.0833ZM10.5409 19.0833H11.4575V17.5833H10.5409V19.0833ZM7.95755 16.5C7.95755 17.9267 9.11414 19.0833 10.5409 19.0833V17.5833C9.94257 17.5833 9.45755 17.0983 9.45755 16.5H7.95755ZM4.22808 15.4386C4.94145 16.6742 6.52139 17.0975 7.75698 16.3841L7.00698 15.0851C6.48883 15.3843 5.82627 15.2067 5.52712 14.6886L4.22808 15.4386ZM3.76975 14.6447L4.22808 15.4386L5.52712 14.6886L5.06878 13.8947L3.76975 14.6447ZM4.71531 11.1158C3.47972 11.8292 3.05638 13.4091 3.76975 14.6447L5.06879 13.8947C4.76963 13.3766 4.94716 12.714 5.46531 12.4149L4.71531 11.1158ZM3.76977 7.35524C3.0564 8.59083 3.47974 10.1708 4.71533 10.8841L5.46533 9.58511C4.94718 9.28595 4.76965 8.62339 5.06881 8.10524L3.76977 7.35524ZM4.2281 6.56139L3.76977 7.35524L5.06881 8.10524L5.52714 7.31139L4.2281 6.56139ZM7.757 5.61582C6.52141 4.90245 4.94147 5.3258 4.2281 6.56139L5.52714 7.31139C5.82629 6.79324 6.48885 6.61571 7.007 6.91486L7.757 5.61582ZM7.007 6.91486C8.09617 7.54369 9.45755 6.75758 9.45755 5.50001H7.95755C7.95755 5.60297 7.84609 5.66726 7.757 5.61582L7.007 6.91486ZM5.46531 12.4149C6.55445 11.786 6.55453 10.214 5.46533 9.58511L4.71533 10.8841C4.80447 10.9356 4.80451 11.0643 4.71531 11.1158L5.46531 12.4149ZM9.45755 16.5C9.45755 15.2425 8.0962 14.4562 7.00698 15.0851L7.75698 16.3841C7.84604 16.3327 7.95755 16.397 7.95755 16.5H9.45755ZM14.9916 15.0851C13.9025 14.4563 12.5409 15.2423 12.5409 16.5H14.0409C14.0409 16.397 14.1524 16.3326 14.2416 16.3841L14.9916 15.0851ZM16.5333 9.58511C15.4441 10.214 15.4441 11.786 16.5333 12.4149L17.2833 11.1158C17.1941 11.0643 17.1941 10.9356 17.2833 10.8841L16.5333 9.58511ZM12.5409 5.50001C12.5409 6.75778 13.9025 7.54365 14.9916 6.91486L14.2416 5.61582C14.1523 5.66736 14.0409 5.60289 14.0409 5.50001H12.5409ZM12.2493 10.9999C12.2493 11.6903 11.6896 12.2499 10.9993 12.2499V13.7499C12.518 13.7499 13.7493 12.5187 13.7493 10.9999H12.2493ZM10.9993 12.2499C10.3089 12.2499 9.74926 11.6903 9.74926 10.9999H8.24926C8.24926 12.5187 9.48048 13.7499 10.9993 13.7499V12.2499ZM9.74926 10.9999C9.74926 10.3096 10.3089 9.74994 10.9993 9.74994V8.24994C9.48048 8.24994 8.24926 9.48116 8.24926 10.9999H9.74926ZM10.9993 9.74994C11.6896 9.74994 12.2493 10.3096 12.2493 10.9999H13.7493C13.7493 9.48116 12.518 8.24994 10.9993 8.24994V9.74994Z" fill="#131214"/>
</svg>
