<svg width="18" height="18" viewBox="0 0 18 18" fill="none" xmlns="http://www.w3.org/2000/svg">
<path d="M8.54241 1.29812C8.72961 0.900628 9.27039 0.900628 9.45759 1.29812L11.4157 5.45588C11.5642 5.77128 11.8512 5.98999 12.1833 6.04086L16.5629 6.71182C16.9814 6.77592 17.1481 7.31497 16.8452 7.6242L13.6773 10.8582C13.4366 11.104 13.3267 11.4582 13.3835 11.8053L14.131 16.3735C14.2025 16.8105 13.7649 17.1437 13.3905 16.9373L9.47504 14.7791C9.17765 14.6152 8.82235 14.6152 8.52496 14.7791L4.60946 16.9373C4.23509 17.1437 3.79749 16.8105 3.86899 16.3735L4.61652 11.8053C4.67332 11.4582 4.56344 11.104 4.32271 10.8582L1.1548 7.6242C0.851892 7.31497 1.01865 6.77592 1.43705 6.71182L5.81675 6.04086C6.14881 5.98999 6.43578 5.77128 6.58432 5.45588L8.54241 1.29812Z" fill="#6EA3F2" stroke="#131214" stroke-width="1.5" stroke-linecap="round" stroke-linejoin="round"/>
</svg>
